<svg width="512" height="512" viewBox="0 0 512 512" fill="none" xmlns="http://www.w3.org/2000/svg">
  <rect width="512" height="512" rx="92" fill="#F7EFE2"/>
  <g transform="translate(256 256)">
    <path d="M0-188C52-188 104-160 130-112C156-64 162-2 118 24C74 50 20 30-8-16C-36-62-40-122 0-188Z" fill="#D92B1F"/>
    <path d="M188 0C188 52 160 104 112 130C64 156 2 162-24 118C-50 74-30 20 16-8C62-36 122-40 188 0Z" fill="#D92B1F"/>
    <path d="M0 188C-52 188-104 160-130 112C-156 64-162 2-118-24C-74-50-20-30 8 16C36 62 40 122 0 188Z" fill="#D92B1F"/>
    <path d="M-188 0C-188-52-160-104-112-130C-64-156-2-162 24-118C50-74 30-20-16 8C-62 36-122 40-188 0Z" fill="#D92B1F"/>
  </g>
  <g transform="translate(256 256)" stroke="#111111" stroke-width="15" stroke-linecap="round" stroke-linejoin="round">
    <path d="M-12-22C-20-78 12-132 54-148C88-160 116-148 128-122C142-92 128-58 94-52C70-48 50-62 52-86C54-104 66-114 80-114"/>
    <path d="M22-12C78-20 132 12 148 54C160 88 148 116 122 128C92 142 58 128 52 94C48 70 62 50 86 52C104 54 114 66 114 80"/>
    <path d="M12 22C20 78-12 132-54 148C-88 160-116 148-128 122C-142 92-128 58-94 52C-70 48-50 62-52 86C-54 104-66 114-80 114"/>
    <path d="M-22 12C-78 20-132-12-148-54C-160-88-148-116-122-128C-92-142-58-128-52-94C-48-70-62-50-86-52C-104-54-114-66-114-80"/>
    <path d="M-118-8C-88 4-58 34-26 76C-10 96 6 110 28 122"/>
    <path d="M8-118C-4-88-34-58-76-26C-96-10-110 6-122 28"/>
    <path d="M118 8C88-4 58-34 26-76C10-96-6-110-28-122"/>
    <path d="M-8 118C4 88 34 58 76 26C96 10 110-6 122-28"/>
  </g>
</svg>